<svg xmlns="http://www.w3.org/2000/svg" viewBox="0 0 1920 1080" preserveAspectRatio="xMidYMid slice">
  <defs>
    <filter id="soft" x="-10%" y="-10%" width="120%" height="120%">
      <feGaussianBlur stdDeviation="18"/>
    </filter>
    <filter id="grain" x="0" y="0" width="100%" height="100%">
      <feTurbulence type="fractalNoise" baseFrequency=".72" numOctaves="3" seed="19"/>
      <feColorMatrix type="saturate" values="0"/>
      <feComponentTransfer>
        <feFuncA type="table" tableValues="0 .16"/>
      </feComponentTransfer>
    </filter>
    <linearGradient id="base" x1="0" y1="0" x2="1" y2="1">
      <stop offset="0" stop-color="#dfe5e7"/>
      <stop offset=".42" stop-color="#9fa9af"/>
      <stop offset=".7" stop-color="#676f75"/>
      <stop offset="1" stop-color="#e8e4d8"/>
    </linearGradient>
    <radialGradient id="eye" cx=".24" cy=".77" r=".32">
      <stop offset="0" stop-color="#eef3f4"/>
      <stop offset=".32" stop-color="#bac4c9"/>
      <stop offset=".54" stop-color="#41484d"/>
      <stop offset=".78" stop-color="#9ca5aa"/>
      <stop offset="1" stop-color="#dfe5e7"/>
    </radialGradient>
  </defs>
  <rect width="1920" height="1080" fill="url(#base)"/>
  <g filter="url(#soft)" opacity=".82">
    <path d="M-120 610 C220 385 548 178 850 244 C1048 288 1158 426 1330 396 C1538 358 1672 166 2040 116 L2040 1120 L-120 1120 Z" fill="#5f686e"/>
    <path d="M990 -50 C1128 170 1120 396 1012 610 C916 800 772 900 592 1170 L-80 1170 L-80 -50 Z" fill="#e8eef0" opacity=".7"/>
    <path d="M1240 -80 C1420 116 1552 302 1718 470 C1842 596 1968 706 2048 862 L2048 -80 Z" fill="#e4e0d2" opacity=".64"/>
    <path d="M1260 110 C1346 156 1430 196 1518 168 C1612 138 1668 58 1750 72 C1846 88 1890 180 2000 188" fill="none" stroke="#20262b" stroke-width="88" stroke-linecap="round" opacity=".68"/>
    <path d="M1334 284 C1424 346 1494 394 1586 372 C1668 352 1728 292 1818 328" fill="none" stroke="#242a2e" stroke-width="72" stroke-linecap="round" opacity=".58"/>
  </g>
  <rect x="0" y="416" width="1920" height="170" fill="#707a80" opacity=".26"/>
  <g opacity=".74" filter="url(#soft)">
    <ellipse cx="438" cy="826" rx="330" ry="168" fill="url(#eye)" transform="rotate(-13 438 826)"/>
    <ellipse cx="430" cy="820" rx="58" ry="94" fill="#20252a" transform="rotate(-13 430 820)"/>
    <ellipse cx="400" cy="782" rx="42" ry="32" fill="#edf2f3" transform="rotate(-13 400 782)" opacity=".7"/>
  </g>
  <rect width="1920" height="1080" filter="url(#grain)" opacity=".72"/>
  <rect width="1920" height="1080" fill="#f8fbfb" opacity=".1"/>
</svg>
